<?xml version="1.0" encoding="UTF-8"?>
<svg id="Layer_1" xmlns="http://www.w3.org/2000/svg" viewBox="0 0 3716.49 2000">
  <defs>
    <style>
      .cls-1 {
        fill: #471f03;
      }
    </style>
  </defs>
  <g>
    <path class="cls-1" d="M2104.07,533.33l-172.04,400h58.34l116.05-269.82c8.43-19.59,36.2-19.59,44.62,0l116.05,269.82h58.34l-172.04-400h-49.33Z"/>
    <g>
      <path class="cls-1" d="M1689.69,533.33l-172.04,400h58.34l116.07-269.86c8.42-19.58,36.18-19.59,44.61-.02l116.3,269.88h58.07l-172.04-400h-49.33Z"/>
      <circle class="cls-1" cx="1712.5" cy="800.08" r="36.87"/>
    </g>
    <polygon class="cls-1" points="2417.54 933.33 2471.06 933.33 2471.06 593.91 2634.31 636.9 2634.31 581.5 2450.99 533.33 2437.61 533.33 2254.28 581.5 2254.28 636.9 2417.54 593.91 2417.54 933.33"/>
    <rect class="cls-1" x="2939.48" y="533.33" width="53.53" height="400"/>
    <g>
      <rect class="cls-1" x="3298.22" y="533.33" width="53.53" height="400"/>
      <path class="cls-1" d="M3095.31,798.26l181.94-81.48v-58.64l-147.73,66.16c-16.07,7.2-34.21-4.56-34.21-22.17v-168.8h-53.53v400h53.53v-135.07Z"/>
    </g>
    <path class="cls-1" d="M2892.91,880.53v-42.2l-135.32-111.33v69.44l37.62,30.94c13.92,11.45,10.96,33.54-5.48,40.91l-53.12,23.84v-358.79h-53.53v400h92.06l117.75-52.81Z"/>
    <path class="cls-1" d="M2092.29,1066.67l-172.04,400h58.07l116.31-269.88c8.44-19.57,36.19-19.56,44.62.02l116.07,269.86h58.34l-172.04-400h-49.33Z"/>
    <circle class="cls-1" cx="2116.88" cy="1333.44" r="36.87"/>
    <rect class="cls-1" x="3396.29" y="1066.67" width="53.53" height="400"/>
    <path class="cls-1" d="M1690,1286.82l-172.35,179.85h76.81l96.46-100.77c9.56-9.99,25.52-9.99,35.09,0l96.46,100.77h76.81l-172.08-179.85h-37.2Z"/>
    <path class="cls-1" d="M1726.01,1167.43c-9.56,9.99-25.52,9.99-35.09,0l-96.46-100.77h-76.81l172.35,179.84h37.2l172.08-179.84h-76.81l-96.46,100.77Z"/>
    <rect class="cls-1" x="2591.07" y="1066.67" width="53.52" height="400"/>
    <path class="cls-1" d="M2388.16,1235.46v-168.8h-53.52v400h53.52v-135.07l181.94-81.48v-58.64l-147.73,66.16c-16.07,7.2-34.21-4.56-34.21-22.17Z"/>
    <path class="cls-1" d="M3107.59,1068.67l-2-2.01h-53.53v400h53.53v-267.83c0-21.47,25.82-32.38,41.21-17.42l85.49,83.09h37.3l105.73-102.76v-74.64l-124.38,120.88-143.35-139.32Z"/>
    <rect class="cls-1" x="2949.76" y="1066.67" width="53.53" height="400"/>
    <path class="cls-1" d="M2767.87,1329.76l37.62,30.94c13.92,11.45,10.96,33.54-5.48,40.91l-53.12,23.84v-358.79h-53.53v400h92.06l117.75-52.81v-42.2l-135.32-111.33v69.44Z"/>
  </g>
  <g>
    <path class="cls-1" d="M416.55,1213.83l6.2-8.54c15.65-21.31,34.47-28.42,45.73-27.81,3.1.15,8.69.98,11.11,5.06,5.44,8.99,3.1,13.76,2.34,15.34-5.89,12.4-33.71,20.41-49.81,22.6l-9.98,1.36,2.8,9.67c1.28,4.23,8.16,25.7,21.99,30.84,20.56,7.71,38.47-.98,55.78-9.37,10.36-5.06,21.09-10.2,33.33-12.77,20.1-4.23,37.41-10.05,51.85-17.46,19.88-10.2,34.31-23.51,43.16-39.68-2.12-10.35-4.54-20.78-7.63-30.91-4.16,24.56-18.82,42.63-43.76,55.25-13,6.73-28.72,11.94-47.16,15.8-14.29,2.95-26.53,8.92-37.34,14.13-15.95,7.71-28.49,13.83-42.1,8.77-2.42-.91-5.37-5.22-7.86-10.35,15.8-3.4,43.54-11.87,52.45-30.38,3.25-6.73,5.29-17.69-3.17-31.74-4.84-8.09-14.06-13-25.17-13.45-14.28-.68-34.84,5.97-52.98,25.62-2.34-4.76-3.93-10.51-3.55-16.55.53-8.62,4.76-16.48,12.77-23.35,3.25-2.87,6.88-5.06,11.03-7.56,11.79-7.1,26.38-15.95,42.86-44.9,22.22-39.08,56.61-35.37,70.29-32.05l3.48.91,3.02-1.81c.23-.15,21.16-12.17,50.04-9.9-1.21,7.33-3.63,18.37-8.62,27.66l-4.53,8.69,9.22,3.55c.3.15,33.26,13.6,44.14,85.41,12.4,82.08,75.66,121.54,78.3,123.2l6.27,3.78,4.76-5.44c.76-.76,70.82-78.53,181.77-83.59,103.02-4.76,192.73-8.84,258.11-63.64,1.59,12.92,1.13,32.8-11.26,49.96-18.74,25.92-58.42,38.7-117.68,38.09-133.18-1.51-170.82,13-188.43,36.81l13.98,10.35c11.49-15.57,41.12-31.22,174.22-29.78,65.53.68,109.97-14.51,132.12-45.42,25.55-35.6,11.26-77.62,10.66-79.44l-4.53-12.92-9.75,9.6c-57.29,56.01-135.74,63.41-258.19,69.01-92.6,4.19-156.93,54.26-182.16,77.62-12.49-65.55-15.46-127.11-13.65-180.8,15.04,3.61,33.02,10.59,54.17,19.28,32.65,13.38,66.44,27.28,97.73,27.28h1.28c45.5-.53,79.97-36.73,96.74-58.8l-1.97-13.76-8.39-1.59c-13.3,18.44-45.5,56.23-86.62,56.76-27.89.23-60.69-13.08-92.13-26-20.41-8.39-41.09-16.84-60.06-20.87,4.44-81.91,19.46-143.01,26.46-167.67,16.66-58.69,16.5-88.2-.64-121.43-14.77-28.63-19.62-47.81-7.24-79.33l-16.18-6.36c-7.55,19.22-9.54,35.01-7.48,50.17-19.54,23.35-54.63,57.8-72.29,57.8-14.45,0-61.06-66.03-95.52-127.69l-2.49-4.45h-33.42c2.15-2.25,5.38-4.2,9.74-6.72,8.71-5.04,20.64-11.94,20.64-28.39,0-30.11-31.97-30.11-53.12-30.11v17.38c30.77,0,35.74,3.75,35.74,12.72,0,5.86-3.28,8.31-11.96,13.34-9.15,5.29-21.67,12.53-21.67,30.46v8.69h43.87c20.51,36.27,77.66,132.14,108.19,132.14,24.91,0,59.95-35.18,77.46-54.65,2.67,7.39,6.15,14.94,10.29,22.96,14.94,28.96,14.79,54.36-.64,108.71-7.12,25.08-22.36,87.04-27,170.1-19.47-.84-36.09,5.43-47.08,25.15l15.19,8.47c6.82-12.17,17.14-16.78,31.11-16.27-1.92,53.4.78,114.54,12.57,179.67-18.32-16.9-45.38-49.16-52.6-96.97-9.3-61.22-34.01-85.71-47.09-94.63,6.8-16.85,7.86-34.39,7.94-35.22l.45-7.79-7.71-1.28c-32.27-5.44-57.97,5.14-66.66,9.37-16.85-3.33-59.41-6.2-86.31,41.04-14.21,25.02-25.62,31.97-36.73,38.62-4.38,2.72-8.99,5.44-13.38,9.22-11.56,9.98-18.06,22.22-18.82,35.6-.75,13.38,4.46,27.51,13.98,37.79l7.18,7.78Z"/>
    <path class="cls-1" d="M1286.13,1253.58c11.1-.76,20.31,2.2,28.06,9.02,20.71,18.21,23.34,57.11,23.36,57.5l.82,13.17,11.77-5.93c22.61-11.4,35.06-31.77,34.17-55.9-1.13-30.37-22.68-59.38-53.62-72.19-28.01-11.6-60.67-8.93-85.23,6.92-22.88,14.79-35.98,39.34-36.9,69.14-1.16,37.72,20.33,65.51,46.5,90.52.23.23.45.45.68.66h0c7.63,7.25,15.63,14.27,23.58,21.25,12.42,10.89,25.26,22.16,36.2,33.94,17.6,18.95,23.08,42.94,13.62,59.71-2.5,4.44-6,8.12-10.23,11.17-.69.48-1.38.91-2.08,1.38-14.03,8.83-35.84,10.85-62.88,5.23-78.33-16.28-127.74-49.78-175.59-89.72,19.09-2.1,35.21-8.09,48.18-18.07,27.44-21.16,32.12-53.29,32.8-66.74-5.82,5.22-12.32,9.75-19.43,13.53-2.87,12.4-9.37,28.27-24.11,39.53-25.39,19.5-67.04,20.41-123.65,2.72-69.01-21.46-112.47-30.46-141.49-31.29-9.07-.23-16.7.3-23.35,1.44-11.19,2.04-19.35,5.9-26.23,11.03l10.43,13.91c15.49-11.56,48.45-18.06,175.42,21.54,24.04,7.46,45.62,11.61,64.99,12.78,53.41,45.99,105.41,85.54,192.17,104.92-54.6-1.02-113.47-31.64-171.04-61.63-40.59-21.15-82.57-43.02-122.32-53.98-98.89-27.28-165.31-8.12-168.08-7.29l4.95,16.66c.63-.19,64.77-18.47,158.51,7.38,37.97,10.48,77.29,30.96,118.91,52.65,9.44,4.92,18.92,9.84,28.41,14.67,2.75,18.51,19.29,100.36,97.75,114.26,4.97,4.65,19.64,19.25,30.5,38.9,16.01,28.94,17.02,55.69,3.02,79.59h-74.63c1.39-6.89,4.49-16.26,11.41-22.12,5.85-4.96,13.56-6.67,23.63-5.21l8.49,1.23,1.34-8.48c1.93-12.23-2.83-37.81-34.7-47.02-3.4-.98-7.86-2.08-13.15-3.39-45.05-11.1-150.54-37.09-154.06-132.32l-17.37.64c4.01,108.33,122.62,137.56,167.28,148.56,5.02,1.24,9.26,2.28,12.49,3.21,15.14,4.37,20.21,13.16,21.8,19.69-10.57.25-19.59,3.64-27.07,9.9-17.55,14.68-18.7,39.51-18.7,43.87v8.82h102.73l2.58-3.89c20.16-30.41,20.12-65.66-.11-101.94-14.75-26.46-34.99-44.05-35.85-44.78l-1.88-1.62-2.46-.38c-32.06-4.98-56.24-23.49-71.89-55.04-5.99-12.07-9.55-23.89-11.63-32.76,45.14,21.96,90.4,39.61,133.98,39.61,26.94,0,53.23-6.86,78.47-23.49.87-.54,1.7-1.08,2.51-1.64.66-.45,1.32-.83,1.98-1.29l-.04-.06c7.52-5.62,11.98-11.8,14.43-16.14,13.19-23.38,6.75-55.56-16.03-80.08-11.54-12.43-24.72-23.99-37.47-35.17-7.94-6.96-15.77-13.84-23.1-20.8h0c-14.56-13.79-24.78-51.62-15.95-76.11,5.36-14.88,16.92-23.01,34.38-24.18ZM1235.4,1271.86c-3.73,10.37-4.85,22.19-4,34.03-3.77-9.31-5.78-19.24-5.45-30.06.94-30.65,16.27-46.87,28.96-55.07,11.45-7.4,25.52-11.2,39.73-11.2,10.02,0,20.12,1.89,29.41,5.74,24.39,10.1,42.03,33.44,42.9,56.77.49,13.08-4.4,24.34-13.95,32.65-2.91-15.5-10.06-39.98-27.27-55.14-11.25-9.91-24.94-14.39-40.75-13.35-24.27,1.62-41.88,14.27-49.57,35.63Z"/>
    <path class="cls-1" d="M987.57,1582.75c-3.55-4.61-6.88-9.45-9.83-14.59-11.11,5.06-28.65,15.04-36.81,30.99-5.14,10.13-5.82,21.09-1.97,32.42l2.04,6.2c9.75,28.27,9.9,28.8-17.69,43.08-28.72,14.81-40.39,27.62-45.15,35.1h-83.2c1.28-5.44,4.09-12.65,9.91-18.62,8.09-8.16,20.26-12.24,36.2-12.24,32.95,0,45.12-12.09,49.51-22.22,7.56-17.31-2.72-37.41-13.83-49.51-16.3-17.59-29.3-47.5-32.14-72.62,55.1-16.92,74.18-1.54,74.4-1.36l5.84-6.44,6.01-6.28c-3.17-3.03-33.46-28.54-121,8.28-56.84,23.91-108.11,16.52-133.45,10.09,4.03-3.49,6.27-5.89,6.62-6.27l3.25-3.63-1.36-4.61c-13.15-46.18,17.31-72.79,19.12-74.3l.08-.08-5.59-6.65-5.52-6.73c-1.66,1.36-39,32.8-26.08,87.45-10.51,9.45-46.48,37.34-112.47,44.14-70.59,7.33-99.09,42.63-108.16,57.67l-73.54-17.23c7.18-10.81,24.11-27.59,59.11-25.09,27.06,1.97,53.59-8.31,73.01-28.27,18.67-19.2,28.34-45.35,25.85-69.99-1.44-14.51-7.03-27.96-12.47-40.97-10.96-26.53-21.39-51.62,2.19-85.33,33.11-47.31,30.08-90.55,26.38-109.59-2.42.6-4.84,1.13-7.26,1.66-3.25.68-6.5,1.59-9.6,2.72,3.1,16.33,5.29,53.74-23.73,95.23-29.1,41.49-15.8,73.62-4.01,101.96,5.14,12.4,9.98,24.11,11.19,36.05,1.97,19.58-5.9,40.59-21.01,56.16-15.8,16.25-37.41,24.56-59.26,23.05-64.09-4.69-81.33,45.12-81.48,45.65l-2.95,8.99,100.15,23.43,7.18,1.66,2.87-6.8c.75-1.89,19.95-45.65,97.35-53.66,48.69-5.06,82.23-20.65,102.53-33.61,10.93,3.77,35.96,10.91,69,10.91,25.74,0,56.32-4.34,88.79-18,3.89-1.64,7.56-3.05,11.19-4.42,4.07,27.9,18.2,59.19,36.19,78.68,8.16,8.77,14.44,22.15,10.73,30.69-3.33,7.56-15.27,11.79-33.64,11.79-20.94,0-36.98,6.25-48.75,17.61-15.2,14.68-15.65,36-15.65,39.53v8.49h113.63s.53-3.74,1.49-6.15c1.25-3.13,5.06-13.08,39.45-30.91,39-20.1,37.19-32.2,26.23-64.17l-2.12-6.05c-2.27-6.88-1.97-13.08,1.06-19.05,6.35-12.55,22.67-20.71,31.14-24.26Z"/>
    <path class="cls-1" d="M361.22,1560.3c4.84-8.69,22.75-33.48,39.83-33.48,19.95,0,65.08,3.63,83.44,5.14,4.01-5.14,7.11-10.81,9.07-16.7-7.1-.6-67.49-5.82-92.51-5.82-23.43,0-42.17,22.9-50.49,35.15l-59.86-31.29c17.16-23.43,49.2-26.53,97.2-23.66,40.36,2.42,79.89-21.62,95.54-32.5-2.19-5.37-4.38-11.04-6.2-17.01-10.05,7.33-49.81,34.39-88.28,32.12-47.77-2.8-96.22-2.04-118.29,40.36l-4.01,7.71,90.4,47.31,4.16-7.33Z"/>
    <path class="cls-1" d="M670.73,723.23c32.05-41.27,62.28-80.27,92.36-89.11,48.06-14.02,55.49-28.55,60.4-64.62,17.12-4.63,35.84-16.43,47.16-29.39-.66,2.95-1.36,5.99-2.11,9.23-9.15,39.05,2.37,66.89,31.59,76.4,70.86,23.07,87.04,129.75,109.42,277.42l4.81,31.55c6.07,39.45,10.56,56.8,15.33,75.17l2.3,8.92c1.32,5.18-.26,21.27-2.09,33.62-8.96,2.43-20.76,3.79-25.29.19-1.9-1.5-2.59-4.62-2.06-9.27l-17.27-1.99c-1.58,13.75,3.78,21.14,8.56,24.91,5.7,4.51,13.15,5.98,20.46,5.98,11.73,0,23.1-3.8,26.31-4.96l4.76-1.73.85-4.99c.96-5.65,5.58-34.42,2.63-46.04l-2.32-9c-4.85-18.71-9.04-34.87-14.97-73.45l-4.8-31.52c-15.2-100.27-27.65-182.39-56.93-234.73,23.82-29.71,10.52-57.74-3.23-79.49-11.2-17.71-22.77-36.03-18.72-61.74,5.95-37.73,2.23-68.61-10.78-92.28l9.18-281.38-21.55-17.6-53.01,131.8-7.31-17.77-54.2,144.15c-15.72,5.4-31.34,15.19-40.31,33.01-17.08,34.01-35.83,125.54-6.5,173.23,7.48-2.34,12.55-4.31,16.1-6.95-26.76-38.77-10.43-126,5.9-158.42,14.45-28.64,56.18-29.97,69.7-29.61-.45,2.45-.87,5.23-1.23,8.29-8.37-.6-45.13-1.47-59.99,28.34-13.33,26.7-29.73,101.24-6.87,123.98,3.58,3.56,9.63,7.16,18.75,7.94-3.82,27.42-9.41,34.96-47.47,46.17-35.52,10.35-67.49,51.55-101.28,95.16-2.87,3.7-5.82,7.48-8.77,11.19,3.93,4.16,8.24,8.16,12.77,11.94,3.25-4.16,6.5-8.31,9.75-12.55ZM951.88,595.62c14.05,22.23,20.94,35.05,7.85,54.33-14.13-19.53-31.69-33.41-54.22-40.74-25.45-8.28-24.94-34.97-20.04-55.9,8.32-35.53,13.81-59-6.58-92.67-11.57-19.11-8.78-44.06-6.41-56.21,10.08,2.22,28.79,8.5,42.59,25.78,16.67,20.87,21.93,51.72,15.63,91.69-5.07,32.17,9.49,55.22,21.19,73.74ZM928.2,171.23l-7.81,239.23c-3.04-2.88-6.16-5.42-9.31-7.66l5.74-144.15-15.21,13.29c-2.47,2.15-9.99,7.15-16.33,6l42.92-106.71ZM830.6,386.61l36.97-98.3c3.23,2.58,7.27,4.89,12.24,6.27,6.58,1.84,12.91.94,18.25-.88l-3.98,99.49c-14.77-6.39-26.83-7.23-27.69-7.29l-6.81-.4c-1.19-.13-13.51-1.14-28.97,1.11ZM799.24,551.06c-12.64-12.57-4.5-74.5,10.16-103.9,10.22-20.47,39.23-19.05,43.62-18.73.33,13.15,2.98,27.98,10.98,41.2,3.23,5.33,5.65,10.28,7.45,15.08-.08,3.08-.89,21.36-9.01,37.05-6.24,12.06-29.24,29.06-48.45,32.06-4.73.74-11.11.86-14.76-2.77Z"/>
    <path class="cls-1" d="M986.66,1088.97c-1.59,2.12-3.33,4.46-5.29,6.88,11.41,27.74,24.34,53.97,39.45,75.73,6.73-.83,13.23-1.74,19.58-2.8-16.93-22.22-31.14-50.64-43.69-81.25l-10.05,1.44Z"/>
    <path class="cls-1" d="M1186.5,1025.33c-38.17,25.62-111.59,4.23-127.99-2.35,1.21,6.88-3.07,15.73,3.32,19.86,13.91,4.84,53.62,12.94,76.9,12.94,19.27,0,39.6-4.01,57.44-16.02,26.38-17.61,46.56-48.6,66.13-78.53,31.59-48.45,52.91-76.79,81.4-62.73l7.64-15.57c-44.37-21.99-74.45,24.19-103.62,68.78-18.59,28.49-37.79,57.97-61.22,73.62Z"/>
    <path class="cls-1" d="M884.64,1013.37l-151.33,47.03c9.37,2.42,18.9,5.67,28.49,9.37l184.12-57.22c.23-4.3.91-52.45.08-69.99-12.62-35.83-25.55-67.65-41.04-89.41,3.93-14.51,8.09-31.44,11.41-45.8-1.21-4.69-2.34-9.22-3.33-13.3-2.04-8.31-4.46-16.55-7.1-24.49-31.29,27.21-67.12,18.21-68.7,17.76l-4.54,16.78c1.66.45,35.07,9.15,68.93-10.2-3.93,17.01-9.45,40.36-14.51,58.73l1.44,7.56c11.21,14.63,23.53,42.9,35.07,73.53,12.36,32.8-5.51,69.26-38.98,79.66Z"/>
    <path class="cls-1" d="M1249.16,918.39c5.82-8.47,11.87-16.55,18.21-23.88l-211.93,65.83c1.89,6.05,3.93,11.34,6.05,16.33l187.67-58.27Z"/>
    <rect class="cls-1" x="505.26" y="1090.66" width="31.15" height="17.39" transform="translate(-410.16 316.35) rotate(-24.58)"/>
    <path class="cls-1" d="M1139.79,1295.39c-22.37,22.9-63.41,29.78-121.99,20.48-66.29-10.58-109.14-13.6-138.01-11.26-3.33.23-6.5.6-9.45.98-22.45,3.02-35.22,9.9-44.37,19.05l12.32,12.32c13.68-13.76,45.35-24.94,176.71-3.93,17.68,2.8,33.93,4.23,48.75,4.23,39.68,0,69.38-10.05,88.58-29.85,22.83-23.58,24.11-54.04,23.13-68.55-5.22,4.38-11.04,8.31-17.38,11.79-.76,12.85-4.61,30.69-18.29,44.74Z"/>
    <path class="cls-1" d="M527.79,536.61c15.95,0,27.29,4.46,32.05,8.16-9.3,6.12-25.24,18.52-34.16,37.11,5.14.53,11.19,1.89,17.46,4.23,10.96-19.27,31.59-30.01,31.9-30.16l4.76-2.42v-5.29c0-16.86-21.84-29.02-52-29.02s-52,12.17-52,29.02h17.38c0-3.55,13.08-11.64,34.62-11.64Z"/>
    <rect class="cls-1" x="519.11" y="703.27" width="17.38" height="33.83"/>
    <path class="cls-1" d="M979.36,1041.13c15.35-60.67.38-172.25-.26-176.97l-.33-2.4-1.52-1.89c-15.93-19.75-23.38-46.39-30.2-74.24-10.61-43.34-30.99-84-31.86-85.71l-15.52,7.83c.2.4,20.35,40.58,30.49,82.01,5.38,21.95,13.43,54.81,32.01,79.05,2.06,16.37,13.69,115.24.34,168.04l16.85,4.26Z"/>
    <path class="cls-1" d="M505.12,514.09c-.38-6.88,2.04-18.44,16.78-31.37,29.25-25.7,7.26-67.04,6.27-68.78l-15.27,8.31c.15.3,16.25,30.91-2.49,47.39-22.9,20.03-23.96,39.45-22.07,50.34,4.84-2.57,10.51-4.54,16.78-5.9Z"/>
    <path class="cls-1" d="M550.39,514.09c6.35,1.36,11.94,3.33,16.85,5.9,1.81-10.13.91-27.74-17.84-46.33-2.19,5.29-5.29,10.51-9.45,15.34,9.15,10.35,10.73,19.35,10.43,25.09Z"/>
    <path class="cls-1" d="M519.72,589.07v17.38c.34,0,34.43.41,45.67,36.17l.94,2.99c8.98,28.78,27.66,88.66,92.37,131.21l9.55-14.53c-59.52-39.13-76.31-92.95-85.33-121.86l-.94-3.03c-12.02-38.24-45.98-48.35-62.26-48.35Z"/>
  </g>
</svg>